<svg xmlns="http://www.w3.org/2000/svg" viewBox="0 0 128 128">
  <rect width="128" height="128" rx="18" fill="#f6efe4"/>
  <circle cx="62" cy="55" r="27" fill="#e6b088"/>
  <path d="M34 50c5-22 18-32 34-31 17 1 27 13 26 35-14-10-40-12-60-4z" fill="#2e2926"/>
  <path d="M34 105c9-24 46-24 55 0v23H34z" fill="#8b6f47"/>
  <path d="M49 70c8 6 20 6 28 0" fill="none" stroke="#673a2a" stroke-width="5" stroke-linecap="round"/>
  <circle cx="52" cy="55" r="4" fill="#2b2118"/>
  <circle cx="74" cy="55" r="4" fill="#2b2118"/>
  <circle cx="91" cy="83" r="18" fill="#ffd3b5"/>
  <path d="M82 78c5-8 15-8 20 0" fill="#3c3028"/>
  <circle cx="86" cy="86" r="2.5" fill="#2b2118"/>
  <circle cx="98" cy="86" r="2.5" fill="#2b2118"/>
</svg>
